<?xml version="1.0" encoding="UTF-8" standalone="no"?>
<svg
   xmlns:dc="http://purl.org/dc/elements/1.1/"
   xmlns:cc="http://creativecommons.org/ns#"
   xmlns:rdf="http://www.w3.org/1999/02/22-rdf-syntax-ns#"
   xmlns:svg="http://www.w3.org/2000/svg"
   xmlns="http://www.w3.org/2000/svg"
   xmlns:sodipodi="http://sodipodi.sourceforge.net/DTD/sodipodi-0.dtd"
   xmlns:inkscape="http://www.inkscape.org/namespaces/inkscape"
   inkscape:version="1.1-dev (b70353cad4, 2020-02-11)"
   sodipodi:docname="raf_logo_fav.svg"
   xml:space="preserve"
   enable-background="new 0 0 118.494 115.494"
   viewBox="0 0 118.494 115.494"
   height="115.494px"
   width="118.494px"
   y="0px"
   x="0px"
   id="Layer_1"
   version="1.1"><metadata
   id="metadata21"><rdf:RDF><cc:Work
       rdf:about=""><dc:format>image/svg+xml</dc:format><dc:type
         rdf:resource="http://purl.org/dc/dcmitype/StillImage" /><dc:title /></cc:Work></rdf:RDF></metadata><defs
   id="defs19" /><sodipodi:namedview
   inkscape:current-layer="Layer_1"
   inkscape:window-maximized="1"
   inkscape:window-y="18"
   inkscape:window-x="49"
   inkscape:cy="56.452248"
   inkscape:cx="59.728227"
   inkscape:zoom="3.6734727"
   showgrid="false"
   id="namedview17"
   inkscape:window-height="750"
   inkscape:window-width="1317"
   inkscape:pageshadow="2"
   inkscape:pageopacity="0"
   guidetolerance="10"
   gridtolerance="10"
   objecttolerance="10"
   borderopacity="1"
   bordercolor="#666666"
   pagecolor="#ffffff" />
<path
   id="path836"
   style="fill:#1a1a1a;fill-opacity:1;stroke:none;stroke-width:3.25887"
   d="M 114.89396,57.747002 A 55.646962,55.646962 0 0 1 59.247002,113.39396 55.646962,55.646962 0 0 1 3.60004,57.747002 55.646962,55.646962 0 0 1 59.247002,2.10004 55.646962,55.646962 0 0 1 114.89396,57.747002 Z"
   inkscape:connector-curvature="0" /><rect
   id="rect2"
   height="117.627"
   width="117.627"
   fill="#00A79D"
   display="none"
   y="0.479"
   x="0.919" />
<polygon
   id="polygon4"
   points="99.986,57.192 79.521,88.23 24.874,74.387 43.707,118.073 118.546,118.106   118.574,73.563 "
   fill="#0E9689"
   display="none" />
<g
   style="fill:#ffffff"
   transform="matrix(1.0712021,0,0,1.0712021,-4.9411525,-6.2658954)"
   id="g14">
	<path
   style="fill:#ffffff"
   inkscape:connector-curvature="0"
   id="path6"
   d="m 53.806,59.452 c 0,4.113 3.338,7.449 7.453,7.449 4.116,0 7.451,-3.336 7.451,-7.449 0,-4.117 -3.335,-7.457 -7.451,-7.457 -4.115,0 -7.453,3.339 -7.453,7.457 z" />
	<path
   style="fill:#ffffff"
   inkscape:connector-curvature="0"
   id="path8"
   d="m 33.789,43.006 c 6.706,0 12.346,4.518 14.062,10.671 2.235,-5.188 7.398,-8.822 13.408,-8.822 2.761,0 5.342,0.765 7.545,2.101 v -3.949 h 7.021 v 10.097 c 1.896,-5.858 7.395,-10.097 13.884,-10.097 2.041,0 3.979,0.42 5.742,1.175 C 89.491,30.86 76.122,21.578 60.58,21.578 c -16.229,0 -30.093,10.125 -35.617,24.406 2.451,-1.869 5.509,-2.978 8.826,-2.978 z" />
	<path
   style="fill:#ffffff"
   inkscape:connector-curvature="0"
   id="path10"
   d="m 97.091,56.625 c -0.479,-3.654 -3.597,-6.477 -7.383,-6.477 -3.783,0 -6.898,2.823 -7.38,6.477 l -0.032,3.625 h 6.491 v 7.143 h -6.561 l -0.06,6.651 H 75.145 V 63.946 c -1.897,5.858 -7.396,10.099 -13.888,10.099 -3.355,0 -6.446,-1.135 -8.91,-3.041 0.225,0.955 0.367,1.942 0.397,2.957 h -7.129 c -0.032,-2.592 -1.075,-4.142 -2.6,-5.052 -2.513,2.058 -5.728,3.286 -9.228,3.286 -2.757,0 -5.342,-0.766 -7.542,-2.096 v 3.945 h -1.082 c 5.656,14.011 19.383,23.894 35.415,23.894 21.088,0 38.184,-17.093 38.184,-38.181 0,-1.057 -0.045,-2.099 -0.127,-3.132 z" />
	<path
   style="fill:#ffffff"
   inkscape:connector-curvature="0"
   id="path12"
   d="m 26.339,57.601 c 0,4.117 3.337,7.453 7.449,7.453 4.119,0 7.455,-3.336 7.455,-7.453 0,-4.117 -3.336,-7.453 -7.455,-7.453 -4.111,0 -7.449,3.336 -7.449,7.453 z" />
</g>
</svg>
